#Comment line ignore any data following # character 
#Hierarchical Translation and Rotation (.htr) file 
[Header]	
#Header keywords are followed by a single value 
FileType HTR		#Single word string
DataType HTRS		#Translation followed by rotation and scale data
FileVersion 1		#integer
NumSegments 84		#integer
NumFrames 2		#integer
DataFrameRate 30		#integer, data frame rate in this file
EulerRotationOrder ZYX
CalibrationUnits mm
RotationUnits Degrees
GlobalAxisofGravity Y
BoneLengthAxis Y
ScaleFactor 1.00
[SegmentNames&Hierarchy]
#CHILD	PARENT
MASTER GLOBAL
root MASTER
chest root
L_mid_tent01 root
R_mid_tent01 root
spine01 root
Bip01_Neck chest
L_humerus chest
R_humerus chest
weapon_bone chest
Bip01_Head Bip01_Neck
eye_left_bone Bip01_Head
eye_right_bone Bip01_Head
L_forearm L_humerus
L_front_hand L_forearm
L_weapon_bone L_forearm
L_front_hand01_01 L_front_hand
L_front_hand02_01 L_front_hand
L_front_hand03_01 L_front_hand
L_front_hand01_02 L_front_hand01_01
L_front_hand02_02 L_front_hand02_01
L_front_hand03_02 L_front_hand03_01
R_forearm R_humerus
R_front_hand R_forearm
R_weapon_bone R_forearm
R_front_hand01_01 R_front_hand
R_front_hand02_01 R_front_hand
R_front_hand03_01 R_front_hand
R_front_hand01_02 R_front_hand01_01
R_front_hand02_02 R_front_hand02_01
R_front_hand03_02 R_front_hand03_01
null_rope01_connect L_mid_tent01
Rope1_Seg01 null_rope01_connect
Rope1_Seg02 Rope1_Seg01
Rope1_Seg03 Rope1_Seg02
Rope1_Seg04 Rope1_Seg03
Rope1_Seg05 Rope1_Seg04
Rope1_Seg06 Rope1_Seg05
Rope1_Seg07 Rope1_Seg06
Rope1_Seg09 Rope1_Seg07
L_mid_hand01 Rope1_Seg09
L_mid_hand02 Rope1_Seg09
L_mid_hand03 Rope1_Seg09
null_rope02_connect R_mid_tent01
Rope2_Seg01 null_rope02_connect
Rope2_Seg02 Rope2_Seg01
Rope2_Seg03 Rope2_Seg02
Rope2_Seg04 Rope2_Seg03
Rope2_Seg05 Rope2_Seg04
Rope2_Seg06 Rope2_Seg05
Rope2_Seg07 Rope2_Seg06
Rope2_Seg09 Rope2_Seg07
R_mid_hand01 Rope2_Seg09
R_mid_hand02 Rope2_Seg09
R_mid_hand03 Rope2_Seg09
spine02 spine01
spine03 spine02
pelvis spine03
null_rope03_connect pelvis
null_rope04_connect pelvis
Rope3_Seg01 null_rope03_connect
Rope3_Seg02 Rope3_Seg01
Rope3_Seg03 Rope3_Seg02
Rope3_Seg04 Rope3_Seg03
Rope3_Seg05 Rope3_Seg04
Rope3_Seg06 Rope3_Seg05
Rope3_Seg07 Rope3_Seg06
Rope3_Seg08 Rope3_Seg07
Rope3_Seg09 Rope3_Seg08
R_rear_hand01 Rope3_Seg09
R_rear_hand02 Rope3_Seg09
R_rear_hand03 Rope3_Seg09
Rope4_Seg01 null_rope04_connect
Rope4_Seg02 Rope4_Seg01
Rope4_Seg03 Rope4_Seg02
Rope4_Seg04 Rope4_Seg03
Rope4_Seg05 Rope4_Seg04
Rope4_Seg06 Rope4_Seg05
Rope4_Seg07 Rope4_Seg06
Rope4_Seg08 Rope4_Seg07
Rope4_Seg09 Rope4_Seg08
L_rear_hand01 Rope4_Seg09
L_rear_hand02 Rope4_Seg09
L_rear_hand03 Rope4_Seg09
[BasePosition]
#SegmentName Tx, Ty, Tz, Rx, Ry, Rz, BoneLength
MASTER 0.000000 0.000000 0.000000 -90.000000 0.000000 0.000000 10.000000 
root 0.000000 0.000000 0.000000 0.000000 0.000000 0.000000 10.000000 
chest 0.000000 0.000000 0.000000 0.000000 0.000000 0.000000 10.000000 
L_mid_tent01 0.000000 0.000000 0.000000 0.000000 0.000000 0.000000 10.000000 
R_mid_tent01 0.000000 0.000000 0.000000 0.000000 0.000000 0.000000 10.000000 
spine01 0.000000 0.000000 0.000000 0.000000 0.000000 0.000000 10.000000 
Bip01_Neck 0.000000 0.000000 0.000000 0.000000 0.000000 0.000000 10.000000 
L_humerus 0.000000 0.000000 0.000000 0.000000 0.000000 0.000000 10.000000 
R_humerus 0.000000 0.000000 0.000000 0.000000 0.000000 0.000000 10.000000 
weapon_bone 0.000000 0.000000 0.000000 0.000000 0.000000 0.000000 10.000000 
Bip01_Head 0.000000 0.000000 0.000000 0.000000 0.000000 0.000000 10.000000 
eye_left_bone 0.000000 0.000000 0.000000 0.000000 0.000000 0.000000 10.000000 
eye_right_bone 0.000000 0.000000 0.000000 0.000000 0.000000 0.000000 10.000000 
L_forearm 0.000000 0.000000 0.000000 0.000000 0.000000 0.000000 10.000000 
L_front_hand 0.000000 0.000000 0.000000 0.000000 0.000000 0.000000 10.000000 
L_weapon_bone 0.000000 0.000000 0.000000 0.000000 0.000000 0.000000 10.000000 
L_front_hand01_01 0.000000 0.000000 0.000000 0.000000 0.000000 0.000000 10.000000 
L_front_hand02_01 0.000000 0.000000 0.000000 0.000000 0.000000 0.000000 10.000000 
L_front_hand03_01 0.000000 0.000000 0.000000 0.000000 0.000000 0.000000 10.000000 
L_front_hand01_02 0.000000 0.000000 0.000000 0.000000 0.000000 0.000000 10.000000 
L_front_hand02_02 0.000000 0.000000 0.000000 0.000000 0.000000 0.000000 10.000000 
L_front_hand03_02 0.000000 0.000000 0.000000 0.000000 0.000000 0.000000 10.000000 
R_forearm 0.000000 0.000000 0.000000 0.000000 0.000000 0.000000 10.000000 
R_front_hand 0.000000 0.000000 0.000000 0.000000 0.000000 0.000000 10.000000 
R_weapon_bone 0.000000 0.000000 0.000000 0.000000 0.000000 0.000000 10.000000 
R_front_hand01_01 0.000000 0.000000 0.000000 0.000000 0.000000 0.000000 10.000000 
R_front_hand02_01 0.000000 0.000000 0.000000 0.000000 0.000000 0.000000 10.000000 
R_front_hand03_01 0.000000 0.000000 0.000000 0.000000 0.000000 0.000000 10.000000 
R_front_hand01_02 0.000000 0.000000 0.000000 0.000000 0.000000 0.000000 10.000000 
R_front_hand02_02 0.000000 0.000000 0.000000 0.000000 0.000000 0.000000 10.000000 
R_front_hand03_02 0.000000 0.000000 0.000000 0.000000 0.000000 0.000000 10.000000 
null_rope01_connect 0.000000 0.000000 0.000000 0.000000 0.000000 0.000000 10.000000 
Rope1_Seg01 0.000000 0.000000 0.000000 0.000000 0.000000 0.000000 10.000000 
Rope1_Seg02 0.000000 0.000000 0.000000 0.000000 0.000000 0.000000 10.000000 
Rope1_Seg03 0.000000 0.000000 0.000000 0.000000 0.000000 0.000000 10.000000 
Rope1_Seg04 0.000000 0.000000 0.000000 0.000000 0.000000 0.000000 10.000000 
Rope1_Seg05 0.000000 0.000000 0.000000 0.000000 0.000000 0.000000 10.000000 
Rope1_Seg06 0.000000 0.000000 0.000000 0.000000 0.000000 0.000000 10.000000 
Rope1_Seg07 0.000000 0.000000 0.000000 0.000000 0.000000 0.000000 10.000000 
Rope1_Seg09 0.000000 0.000000 0.000000 0.000000 0.000000 0.000000 10.000000 
L_mid_hand01 0.000000 0.000000 0.000000 0.000000 0.000000 0.000000 10.000000 
L_mid_hand02 0.000000 0.000000 0.000000 0.000000 0.000000 0.000000 10.000000 
L_mid_hand03 0.000000 0.000000 0.000000 0.000000 0.000000 0.000000 10.000000 
null_rope02_connect 0.000000 0.000000 0.000000 0.000000 0.000000 0.000000 10.000000 
Rope2_Seg01 0.000000 0.000000 0.000000 0.000000 0.000000 0.000000 10.000000 
Rope2_Seg02 0.000000 0.000000 0.000000 0.000000 0.000000 0.000000 10.000000 
Rope2_Seg03 0.000000 0.000000 0.000000 0.000000 0.000000 0.000000 10.000000 
Rope2_Seg04 0.000000 0.000000 0.000000 0.000000 0.000000 0.000000 10.000000 
Rope2_Seg05 0.000000 0.000000 0.000000 0.000000 0.000000 0.000000 10.000000 
Rope2_Seg06 0.000000 0.000000 0.000000 0.000000 0.000000 0.000000 10.000000 
Rope2_Seg07 0.000000 0.000000 0.000000 0.000000 0.000000 0.000000 10.000000 
Rope2_Seg09 0.000000 0.000000 0.000000 0.000000 0.000000 0.000000 10.000000 
R_mid_hand01 0.000000 0.000000 0.000000 0.000000 0.000000 0.000000 10.000000 
R_mid_hand02 0.000000 0.000000 0.000000 0.000000 0.000000 0.000000 10.000000 
R_mid_hand03 0.000000 0.000000 0.000000 0.000000 0.000000 0.000000 10.000000 
spine02 0.000000 0.000000 0.000000 0.000000 0.000000 0.000000 10.000000 
spine03 0.000000 0.000000 0.000000 0.000000 0.000000 0.000000 10.000000 
pelvis 0.000000 0.000000 0.000000 0.000000 0.000000 0.000000 10.000000 
null_rope03_connect 0.000000 0.000000 0.000000 0.000000 0.000000 0.000000 10.000000 
null_rope04_connect 0.000000 0.000000 0.000000 0.000000 0.000000 0.000000 10.000000 
Rope3_Seg01 0.000000 0.000000 0.000000 0.000000 0.000000 0.000000 10.000000 
Rope3_Seg02 0.000000 0.000000 0.000000 0.000000 0.000000 0.000000 10.000000 
Rope3_Seg03 0.000000 0.000000 0.000000 0.000000 0.000000 0.000000 10.000000 
Rope3_Seg04 0.000000 0.000000 0.000000 0.000000 0.000000 0.000000 10.000000 
Rope3_Seg05 0.000000 0.000000 0.000000 0.000000 0.000000 0.000000 10.000000 
Rope3_Seg06 0.000000 0.000000 0.000000 0.000000 0.000000 0.000000 10.000000 
Rope3_Seg07 0.000000 0.000000 0.000000 0.000000 0.000000 0.000000 10.000000 
Rope3_Seg08 0.000000 0.000000 0.000000 0.000000 0.000000 0.000000 10.000000 
Rope3_Seg09 0.000000 0.000000 0.000000 0.000000 0.000000 0.000000 10.000000 
R_rear_hand01 0.000000 0.000000 0.000000 0.000000 0.000000 0.000000 10.000000 
R_rear_hand02 0.000000 0.000000 0.000000 0.000000 0.000000 0.000000 10.000000 
R_rear_hand03 0.000000 0.000000 0.000000 0.000000 0.000000 0.000000 10.000000 
Rope4_Seg01 0.000000 0.000000 0.000000 0.000000 0.000000 0.000000 10.000000 
Rope4_Seg02 0.000000 0.000000 0.000000 0.000000 0.000000 0.000000 10.000000 
Rope4_Seg03 0.000000 0.000000 0.000000 0.000000 0.000000 0.000000 10.000000 
Rope4_Seg04 0.000000 0.000000 0.000000 0.000000 0.000000 0.000000 10.000000 
Rope4_Seg05 0.000000 0.000000 0.000000 0.000000 0.000000 0.000000 10.000000 
Rope4_Seg06 0.000000 0.000000 0.000000 0.000000 0.000000 0.000000 10.000000 
Rope4_Seg07 0.000000 0.000000 0.000000 0.000000 0.000000 0.000000 10.000000 
Rope4_Seg08 0.000000 0.000000 0.000000 0.000000 0.000000 0.000000 10.000000 
Rope4_Seg09 0.000000 0.000000 0.000000 0.000000 0.000000 0.000000 10.000000 
L_rear_hand01 0.000000 0.000000 0.000000 0.000000 0.000000 0.000000 10.000000 
L_rear_hand02 0.000000 0.000000 0.000000 0.000000 0.000000 0.000000 10.000000 
L_rear_hand03 0.000000 0.000000 0.000000 0.000000 0.000000 0.000000 10.000000 
#Beginning of Data. Separated by tabs
#Fr	Tx	Ty	Tz	Rx	Ry	Rz	SF
[MASTER]
21 -0.000531 3534.449219 4115.448730 0.001660 0.001660 0.001660 5424.873535
22 -0.000549 3652.399414 4098.150879 0.001660 0.001660 0.001660 5489.522949
[root]
21 -22.927433 -8.899509 1464.638916 -96.372307 -19.985962 -91.566887 1464.845459
22 -20.405500 -1.732766 1458.233398 -95.647514 -18.676294 -91.101204 1458.377197
[chest]
21 -84.512650 -34.090519 0.000000 -1.888051 0.943089 -178.206711 91.129311
22 -84.512650 -34.090519 0.000000 -1.973779 0.878307 179.107651 91.129311
[L_mid_tent01]
21 27.299171 22.179487 -249.918701 3.862590 36.229195 81.347527 252.381729
22 27.299177 22.179506 -249.918701 -5.727162 33.001545 61.779636 252.381729
[R_mid_tent01]
21 23.228794 24.509907 226.238495 160.432068 -47.061234 87.899719 228.744751
22 23.228794 24.509907 226.238495 169.550690 -45.304653 74.619255 228.744751
[spine01]
21 -0.361383 -0.195265 0.000000 0.001948 0.001310 22.157669 0.410763
22 -0.361383 -0.195265 0.000000 0.001947 0.001311 22.119881 0.410763
[Bip01_Neck]
21 165.484543 71.581718 0.000119 176.643677 -1.657967 43.431911 180.302734
22 165.484543 71.581718 0.000119 176.643677 -1.657967 43.431911 180.302734
[L_humerus]
21 -13.983130 -135.272980 -120.471481 -5.768996 68.103470 84.249680 181.680161
22 -13.983130 -135.272980 -120.471481 -5.646842 68.417328 84.387093 181.680161
[R_humerus]
21 -13.983309 -135.273102 125.287651 27.478617 -69.089455 68.182304 184.909012
22 -13.983309 -135.273102 125.287651 27.638937 -69.421356 68.018463 184.909012
[weapon_bone]
21 235.964890 -300.705902 0.000000 0.000000 -89.951546 -128.212341 382.234833
22 235.964890 -300.705902 0.000000 0.000000 -89.951546 -128.212341 382.234833
[Bip01_Head]
21 213.327026 186.042175 7.559213 5.200446 6.151311 -43.834991 283.155884
22 213.327026 186.042175 7.559218 5.200446 6.151311 -43.834991 283.155884
[eye_left_bone]
21 -24.626970 125.451866 -64.772606 0.000000 -90.000000 -99.840431 143.318359
22 -24.626970 125.451866 -64.772606 0.000000 -90.000000 -99.840431 143.318359
[eye_right_bone]
21 -24.626970 125.451866 64.327362 0.000000 -89.965736 80.156380 143.117676
22 -24.626970 125.451866 64.327362 0.000000 -89.965736 80.156380 143.117676
[L_forearm]
21 322.776093 0.000000 -0.000119 0.000401 -0.002313 -109.689346 322.776093
22 322.776093 0.000000 -0.000119 0.000399 -0.002313 -109.571388 322.776093
[L_front_hand]
21 241.149185 -0.042021 -3.300071 -178.667953 -1.835447 -27.422350 241.171753
22 241.149185 -0.042021 -3.300071 -178.667953 -1.835447 -27.422350 241.171753
[L_weapon_bone]
21 156.183838 0.000000 0.000000 0.000014 0.000007 0.000001 156.183838
22 156.183838 0.000000 0.000000 0.000014 0.000007 0.000001 156.183838
[L_front_hand01_01]
21 86.095154 20.947098 -0.655860 -0.306535 -0.513312 68.646957 88.609184
22 86.095154 20.947098 -0.655860 -0.314053 -0.508434 69.417068 88.609184
[L_front_hand02_01]
21 86.935165 -11.437475 24.513514 145.004044 -56.473930 -50.323578 91.046425
22 86.935165 -11.437475 24.513514 145.968994 -56.908298 -51.478970 91.046425
[L_front_hand03_01]
21 86.637497 -14.123976 -20.424902 -145.151382 54.687630 -52.198425 90.126129
22 86.637497 -14.123976 -20.424902 -146.056091 55.123112 -53.303532 90.126129
[L_front_hand01_02]
21 71.020905 -0.000179 0.000030 0.000317 -0.002326 -105.540344 71.020905
22 71.020905 -0.000179 0.000030 0.000318 -0.002326 -105.579170 71.020905
[L_front_hand02_02]
21 71.020927 -0.000119 0.000060 0.000317 -0.002326 -105.540344 71.020927
22 71.020927 -0.000119 0.000060 0.000318 -0.002326 -105.579170 71.020927
[L_front_hand03_02]
21 71.020905 -0.000060 0.000060 0.000317 -0.002326 -105.540344 71.020905
22 71.020905 -0.000060 0.000060 0.000318 -0.002326 -105.579170 71.020905
[R_forearm]
21 322.776428 -0.000060 0.000030 0.201946 0.065642 -108.337517 322.776428
22 322.776428 -0.000060 0.000030 0.202012 0.065438 -108.221619 322.776428
[R_front_hand]
21 238.847015 -0.006795 2.210259 -2.635298 -10.645461 -26.312506 238.857239
22 238.847015 -0.006795 2.210259 -2.635298 -10.645461 -26.312506 238.857239
[R_weapon_bone]
21 155.664093 0.002503 -0.000030 0.003487 0.001180 -90.988930 155.664078
22 155.664093 0.002503 -0.000030 0.003487 0.001180 -90.988930 155.664078
[R_front_hand01_01]
21 87.624611 14.231146 22.918642 -144.694336 -56.325737 50.060089 91.683487
22 87.624611 14.231146 22.918642 -146.552551 -57.155426 52.280727 91.683487
[R_front_hand02_01]
21 89.356956 14.367283 -19.491137 145.240677 54.711182 52.540722 92.579636
22 89.356956 14.367283 -19.491137 146.998062 55.533039 54.685249 92.579636
[R_front_hand03_01]
21 87.286232 -22.307278 -0.143439 0.105409 -0.441003 -68.629555 90.091743
22 87.286232 -22.307278 -0.143439 0.117983 -0.440813 -70.109169 90.091743
[R_front_hand01_02]
21 71.020905 0.000060 0.000119 0.002323 -0.000334 106.381714 71.020905
22 71.020905 0.000060 0.000119 0.002323 -0.000334 106.381714 71.020905
[R_front_hand02_02]
21 71.020844 -0.000030 -0.000119 0.002323 -0.000334 106.381714 71.020836
22 71.020844 -0.000030 -0.000119 0.002323 -0.000334 106.381714 71.020836
[R_front_hand03_02]
21 71.020905 0.000000 0.000030 0.002323 -0.000334 106.381714 71.020905
22 71.020905 0.000000 0.000030 0.002323 -0.000334 106.381714 71.020905
[null_rope01_connect]
21 328.732483 0.000000 -0.000238 -145.355270 -46.540821 175.309158 328.732483
22 328.732483 0.000000 -0.000238 -144.645798 -50.519245 -169.948776 328.732483
[Rope1_Seg01]
21 0.000045 -0.000006 0.000025 34.768364 -36.825031 -106.928017 0.000052
22 0.000043 -0.000005 0.000019 33.733158 -35.670609 -106.048828 0.000047
[Rope1_Seg02]
21 139.999863 -0.000179 0.000000 0.221946 2.105510 -3.091171 139.999863
22 139.999863 -0.000179 0.000000 -0.338578 3.841047 -3.795974 139.999863
[Rope1_Seg03]
21 139.999924 0.000060 -0.000060 0.499720 4.070333 -6.060628 139.999924
22 139.999924 0.000060 -0.000060 -0.688868 6.682258 -7.058082 139.999924
[Rope1_Seg04]
21 139.999924 -0.000060 -0.000119 18.131269 14.736101 -31.820045 139.999924
22 139.999924 -0.000060 -0.000119 -0.072639 16.123959 -20.873081 139.999924
[Rope1_Seg05]
21 139.999832 0.000119 -0.000060 -60.865940 23.548439 10.517800 139.999832
22 139.999832 0.000119 -0.000060 -26.807520 7.124382 13.129534 139.999832
[Rope1_Seg06]
21 139.999954 0.000119 -0.000060 -10.063970 -2.393067 13.571097 139.999954
22 139.999954 0.000119 -0.000060 -6.003290 -1.554077 7.904950 139.999954
[Rope1_Seg07]
21 139.999985 0.000060 0.000000 -2.606239 -0.973936 4.556577 139.999985
22 139.999985 0.000060 0.000000 -2.752337 -0.244875 3.540346 139.999985
[Rope1_Seg09]
21 121.602913 0.000119 -0.000089 -89.793175 -1.359789 0.847147 121.602913
22 121.602913 0.000119 -0.000089 -89.793175 -1.359789 0.847147 121.602913
[L_mid_hand01]
21 103.859421 1.038730 8.195221 130.544373 -67.584534 -38.866943 104.187431
22 103.859421 1.038730 8.195221 130.544373 -67.584534 -38.866943 104.187431
[L_mid_hand02]
21 105.572853 -4.139662 -10.864139 -168.923172 43.409309 -73.498886 106.211075
22 105.572853 -4.139662 -10.864139 -168.923172 43.409309 -73.498886 106.211075
[L_mid_hand03]
21 104.641464 17.579376 -3.913581 -6.012626 17.808172 74.893661 106.179977
22 104.641464 17.579376 -3.913581 -6.012627 17.808174 74.893669 106.179977
[null_rope02_connect]
21 328.732849 0.000179 -0.000119 -130.153915 46.690865 20.137911 328.732849
22 328.732849 0.000179 -0.000119 -129.111099 49.445118 13.387375 328.732849
[Rope2_Seg01]
21 0.000070 0.000025 0.000000 56.145767 -14.670439 -63.242332 0.000074
22 0.000072 0.000019 0.000000 61.908543 -17.551973 -69.836388 0.000074
[Rope2_Seg02]
21 139.999741 -0.000060 -0.000119 3.046398 0.127817 -2.696489 139.999756
22 139.999741 -0.000060 -0.000119 2.153634 1.042857 -2.744252 139.999756
[Rope2_Seg03]
21 140.000107 0.000030 0.000000 4.770918 2.586574 -4.838382 140.000107
22 140.000107 0.000030 0.000000 2.152838 3.844475 -3.767485 140.000107
[Rope2_Seg04]
21 139.999802 0.000000 -0.000060 19.791910 -5.239737 -12.365016 139.999802
22 139.999802 0.000000 -0.000060 7.212543 3.328881 -6.857497 139.999802
[Rope2_Seg05]
21 139.999985 -0.000060 0.000119 1.012685 -31.692379 9.138481 139.999985
22 139.999985 -0.000060 0.000119 10.253822 -24.445400 -1.549570 139.999985
[Rope2_Seg06]
21 139.999893 -0.000030 -0.000119 0.298159 -8.335721 1.988354 139.999893
22 139.999893 -0.000030 -0.000119 1.496396 -8.912033 0.872310 139.999893
[Rope2_Seg07]
21 139.999893 0.000060 -0.000060 0.063605 -4.164258 1.018844 139.999893
22 139.999893 0.000060 -0.000060 0.571351 -4.368384 0.375813 139.999893
[Rope2_Seg09]
21 121.338966 0.000089 -0.000060 33.793236 -1.359788 -0.847141 121.338966
22 121.338966 0.000089 -0.000060 33.793236 -1.359788 -0.847141 121.338966
[R_mid_hand01]
21 104.680779 11.144459 -10.335981 -16.212063 45.237247 70.462852 105.778534
22 104.680779 11.144459 -10.335981 -16.212063 45.237247 70.462852 105.778534
[R_mid_hand02]
21 104.070427 2.443552 8.231699 49.067368 -67.749771 39.286453 104.424065
22 104.070427 2.443552 8.231699 49.067368 -67.749771 39.286453 104.424065
[R_mid_hand03]
21 106.028137 -11.221827 -5.996406 -177.101105 15.551026 -76.585571 106.788818
22 106.028137 -11.221827 -5.996406 -177.101105 15.551026 -76.585571 106.788818
[spine02]
21 129.756927 0.001550 0.000119 0.383110 -4.042456 -13.289454 129.756927
22 129.756927 0.001550 0.000119 0.372731 -4.043536 -13.134658 129.756927
[spine03]
21 78.614174 0.081253 -4.899014 1.911681 3.823700 16.718493 78.766716
22 78.614182 0.081234 -4.899014 1.906081 3.828254 16.613346 78.766724
[pelvis]
21 169.435242 0.051022 0.000000 -0.061217 -0.179971 14.566449 169.435257
22 169.435242 0.051022 0.000000 -0.060912 -0.180075 14.372021 169.435257
[null_rope03_connect]
21 -1.257226 -2.466202 137.391083 -144.262772 -84.009521 -145.936081 137.418976
22 -1.257226 -2.466202 137.391083 -147.451294 -84.986908 -143.852127 137.418976
[null_rope04_connect]
21 -1.259640 -2.480268 -137.844437 -144.262772 -84.009521 -145.936081 137.872513
22 -1.259640 -2.480268 -137.844437 -147.451294 -84.986908 -143.852127 137.872513
[Rope3_Seg01]
21 0.000010 0.000006 -0.000025 -134.178238 18.552528 -87.537224 0.000028
22 0.000010 0.000005 -0.000019 -133.908722 18.091413 -86.926102 0.000022
[Rope3_Seg02]
21 139.999924 -0.000119 0.000060 -0.126829 -0.947940 -0.012130 139.999924
22 139.999924 -0.000119 0.000060 -0.033667 -1.165846 -0.903118 139.999924
[Rope3_Seg03]
21 139.999924 -0.000119 0.000119 -0.115483 -1.329344 -0.560857 139.999924
22 139.999924 -0.000119 0.000119 0.004300 -1.561324 -1.645526 139.999924
[Rope3_Seg04]
21 139.999924 0.000119 0.000000 -0.174259 -1.780605 -1.093727 139.999924
22 139.999924 0.000119 0.000000 -0.016185 -2.091358 -2.545707 139.999924
[Rope3_Seg05]
21 139.999924 -0.000238 0.000060 0.025436 1.846800 4.237095 139.999924
22 139.999924 -0.000238 0.000060 0.045915 1.885779 4.791883 139.999924
[Rope3_Seg06]
21 139.999893 -0.000119 -0.000060 0.334068 1.955165 3.816817 139.999893
22 139.999893 -0.000119 -0.000060 0.290340 2.221891 4.925759 139.999893
[Rope3_Seg07]
21 139.999771 0.000060 -0.000119 0.388157 0.900186 1.973264 139.999771
22 139.999771 0.000060 -0.000119 0.358473 0.983582 2.378935 139.999771
[Rope3_Seg08]
21 139.999985 -0.000060 0.000000 0.448320 0.585290 1.265156 139.999985
22 139.999985 -0.000060 0.000000 0.420755 0.644019 1.522428 139.999985
[Rope3_Seg09]
21 90.185997 -0.000179 -0.000060 89.793228 -1.359877 -0.847183 90.185997
22 90.185997 -0.000179 -0.000060 89.793228 -1.359877 -0.847183 90.185997
[R_rear_hand01]
21 103.366196 -6.073594 -10.757982 -177.714203 24.565960 -73.910950 104.101845
22 103.366196 -6.073594 -10.757982 -177.714203 24.565960 -73.910950 104.101845
[R_rear_hand02]
21 100.509819 12.039542 -7.992327 -12.874829 36.868488 72.167213 101.543350
22 100.509819 12.039542 -7.992327 -12.874829 36.868488 72.167213 101.543350
[R_rear_hand03]
21 101.539970 5.215704 5.435467 71.484581 -71.816628 21.513813 101.819031
22 101.539970 5.215704 5.435467 71.484581 -71.816628 21.513813 101.819031
[Rope4_Seg01]
21 -0.000011 -0.000006 -0.000534 43.883308 20.573261 -119.034668 0.000534
22 -0.000011 -0.000005 -0.000553 44.144482 21.534664 -118.067856 0.000553
[Rope4_Seg02]
21 139.999985 0.000060 0.000119 0.399051 3.007752 3.634251 139.999985
22 139.999985 0.000060 0.000119 0.408704 2.600618 3.974271 139.999985
[Rope4_Seg03]
21 139.999924 0.000000 -0.000238 0.364467 4.412091 5.298562 139.999924
22 139.999924 0.000000 -0.000238 0.325338 3.838591 5.809712 139.999924
[Rope4_Seg04]
21 139.999985 0.000000 0.000119 -0.088480 12.111479 17.748838 139.999985
22 139.999985 0.000000 0.000119 -0.653384 10.661539 19.472006 139.999985
[Rope4_Seg05]
21 139.999802 -0.000060 -0.000119 1.745859 0.395212 -5.351099 139.999802
22 139.999802 -0.000060 -0.000119 1.603997 0.769563 -4.638346 139.999802
[Rope4_Seg06]
21 139.999924 0.000000 0.000060 3.257035 -7.673091 -15.900786 139.999924
22 139.999924 0.000000 0.000060 3.892650 -7.116395 -18.488894 139.999924
[Rope4_Seg07]
21 139.999802 0.000000 0.000000 0.320549 -1.985658 -4.402369 139.999802
22 139.999802 0.000000 0.000000 0.336692 -1.904577 -4.961765 139.999802
[Rope4_Seg08]
21 139.999924 0.000000 0.000119 -1.453920 -1.112665 -2.432838 139.999924
22 139.999924 0.000000 0.000119 -1.467566 -1.052255 -2.710532 139.999924
[Rope4_Seg09]
21 90.185791 0.000060 0.000060 -135.617828 2.228885 0.850567 90.185791
22 90.185791 0.000060 0.000060 -135.617828 2.228885 0.850567 90.185791
[L_rear_hand01]
21 101.696655 -8.392275 -7.654577 -12.874829 -36.868488 107.832764 102.329041
22 101.696655 -8.392275 -7.654577 -12.874829 -36.868488 107.832764 102.329041
[L_rear_hand02]
21 102.726799 -1.568258 5.773216 71.484581 71.816628 158.486160 102.900848
22 102.726799 -1.568258 5.773216 71.484581 71.816628 158.486160 102.900848
[L_rear_hand03]
21 104.552910 9.721220 -10.420293 -177.714203 -24.565960 -106.089035 105.519653
22 104.552910 9.721220 -10.420293 -177.714203 -24.565960 -106.089035 105.519653
